<?xml version="1.0" encoding="utf-8"?>
<!-- Generator: Adobe Illustrator 23.0.1, SVG Export Plug-In . SVG Version: 6.00 Build 0)  -->
<svg version="1.1" id="图层_1" xmlns="http://www.w3.org/2000/svg" xmlns:xlink="http://www.w3.org/1999/xlink" x="0px" y="0px"
	 viewBox="0 0 123.31 42.43" style="enable-background:new 0 0 123.31 42.43;" xml:space="preserve">
<style type="text/css">
	.st0{fill:#FFFFFF;}
	.st1{clip-path:url(#SVGID_2_);fill:#144494;}
	.st2{clip-path:url(#SVGID_2_);}
</style>
<g>
	<g>
		<path class="st0" d="M67.69,9.51c0,0.23-0.04,0.44-0.13,0.64c-0.09,0.2-0.21,0.37-0.36,0.51c-0.15,0.14-0.33,0.26-0.54,0.34
			c-0.21,0.08-0.43,0.13-0.65,0.13c-0.48,0-0.88-0.16-1.2-0.48c-0.32-0.32-0.48-0.7-0.48-1.14c0-0.21,0.04-0.42,0.13-0.62
			c0.08-0.2,0.2-0.37,0.36-0.51c0.16-0.14,0.33-0.26,0.54-0.35c0.2-0.09,0.42-0.13,0.66-0.13c0.23,0,0.44,0.04,0.65,0.13
			c0.21,0.08,0.39,0.2,0.54,0.34c0.15,0.14,0.27,0.31,0.36,0.51C67.65,9.07,67.69,9.28,67.69,9.51z M64.54,21.29v-8.93h2.94v8.93
			H64.54z"/>
		<path class="st0" d="M75.67,21.29v-4.88c0-0.25-0.02-0.49-0.06-0.72c-0.04-0.23-0.11-0.43-0.21-0.6c-0.1-0.17-0.23-0.31-0.4-0.41
			c-0.17-0.1-0.39-0.15-0.65-0.15c-0.26,0-0.49,0.05-0.69,0.15c-0.2,0.1-0.36,0.24-0.49,0.42c-0.13,0.18-0.23,0.39-0.3,0.62
			c-0.07,0.23-0.1,0.48-0.1,0.73v4.84h-2.96v-8.93h2.85v1.24h0.04c0.11-0.19,0.25-0.38,0.42-0.56c0.17-0.19,0.38-0.34,0.61-0.48
			c0.23-0.13,0.49-0.24,0.76-0.32c0.27-0.08,0.57-0.13,0.88-0.13c0.6,0,1.11,0.11,1.52,0.32c0.42,0.21,0.76,0.49,1.01,0.83
			c0.26,0.34,0.44,0.73,0.56,1.17c0.11,0.44,0.17,0.88,0.17,1.33v5.52H75.67z"/>
		<path class="st0" d="M84.04,14.55v3.42c0,0.42,0.08,0.73,0.24,0.94c0.16,0.21,0.45,0.31,0.87,0.31c0.14,0,0.3-0.01,0.46-0.04
			c0.16-0.02,0.3-0.06,0.4-0.11l0.04,2.15c-0.2,0.07-0.46,0.13-0.77,0.19c-0.31,0.05-0.62,0.08-0.93,0.08c-0.6,0-1.1-0.07-1.51-0.22
			c-0.41-0.15-0.73-0.37-0.98-0.65c-0.25-0.28-0.42-0.62-0.53-1.01c-0.11-0.39-0.16-0.82-0.16-1.3v-3.77h-1.43v-2.19h1.42v-2.35
			h2.89v2.35h2.1v2.19H84.04z"/>
		<path class="st0" d="M96.98,16.79c0,0.73-0.13,1.39-0.39,1.98c-0.26,0.59-0.62,1.09-1.08,1.51s-0.98,0.73-1.58,0.96
			c-0.6,0.23-1.24,0.34-1.92,0.34c-0.67,0-1.31-0.11-1.91-0.34c-0.6-0.23-1.13-0.55-1.58-0.96c-0.45-0.41-0.8-0.91-1.07-1.51
			c-0.26-0.59-0.39-1.25-0.39-1.98c0-0.73,0.13-1.39,0.39-1.97c0.26-0.59,0.62-1.08,1.07-1.49c0.45-0.41,0.97-0.72,1.58-0.93
			c0.6-0.21,1.24-0.32,1.91-0.32c0.68,0,1.32,0.11,1.92,0.32c0.6,0.22,1.12,0.53,1.58,0.93c0.45,0.41,0.81,0.9,1.08,1.49
			C96.85,15.4,96.98,16.06,96.98,16.79z M94.15,16.79c0-0.29-0.05-0.57-0.14-0.84c-0.1-0.27-0.23-0.52-0.41-0.73
			c-0.18-0.21-0.4-0.38-0.66-0.51c-0.26-0.13-0.57-0.2-0.91-0.2c-0.35,0-0.65,0.07-0.91,0.2c-0.26,0.13-0.48,0.3-0.65,0.51
			c-0.17,0.21-0.3,0.45-0.39,0.73c-0.09,0.28-0.13,0.56-0.13,0.84s0.04,0.57,0.13,0.84c0.09,0.28,0.22,0.52,0.4,0.74
			c0.18,0.22,0.4,0.4,0.66,0.53c0.26,0.13,0.57,0.2,0.91,0.2c0.35,0,0.65-0.07,0.91-0.2c0.26-0.13,0.48-0.31,0.66-0.53
			c0.18-0.22,0.31-0.47,0.4-0.74C94.11,17.36,94.15,17.08,94.15,16.79z"/>
		<path class="st0" d="M70.76,27.89c-0.18-0.27-0.45-0.5-0.81-0.69c-0.36-0.19-0.74-0.28-1.15-0.28c-0.44,0-0.83,0.08-1.17,0.25
			c-0.34,0.17-0.63,0.39-0.87,0.67c-0.24,0.28-0.42,0.61-0.55,0.98c-0.13,0.37-0.19,0.76-0.19,1.17c0,0.41,0.06,0.8,0.19,1.17
			c0.13,0.37,0.31,0.7,0.55,0.98c0.24,0.28,0.53,0.51,0.88,0.67c0.35,0.17,0.74,0.25,1.18,0.25c0.43,0,0.82-0.08,1.17-0.25
			c0.35-0.17,0.64-0.39,0.87-0.68L72,33.14c-0.36,0.42-0.81,0.74-1.34,0.98c-0.54,0.23-1.15,0.35-1.83,0.35
			c-0.66,0-1.26-0.11-1.82-0.32c-0.56-0.21-1.04-0.52-1.44-0.9c-0.41-0.39-0.73-0.86-0.96-1.41c-0.23-0.55-0.35-1.17-0.35-1.85
			c0-0.67,0.11-1.28,0.34-1.83c0.23-0.55,0.54-1.02,0.95-1.42c0.41-0.39,0.89-0.7,1.44-0.91c0.56-0.22,1.16-0.32,1.8-0.32
			c0.6,0,1.19,0.12,1.78,0.36c0.59,0.24,1.06,0.59,1.41,1.04L70.76,27.89z"/>
		<path class="st0" d="M78.95,28.73c0-0.63-0.19-1.1-0.57-1.41c-0.38-0.3-0.89-0.46-1.52-0.46c-0.48,0-0.93,0.09-1.35,0.28
			c-0.42,0.19-0.78,0.42-1.07,0.71l-0.9-1.08c0.42-0.39,0.93-0.7,1.53-0.93c0.6-0.23,1.25-0.34,1.94-0.34
			c0.61,0,1.14,0.09,1.59,0.26c0.45,0.17,0.82,0.41,1.1,0.71c0.29,0.3,0.5,0.65,0.65,1.06c0.14,0.41,0.21,0.84,0.21,1.31v3.71
			c0,0.29,0.01,0.59,0.03,0.9c0.02,0.32,0.05,0.58,0.1,0.78h-1.52c-0.1-0.41-0.14-0.81-0.14-1.22h-0.05
			c-0.31,0.45-0.7,0.81-1.17,1.06c-0.47,0.25-1.03,0.38-1.68,0.38c-0.33,0-0.68-0.04-1.05-0.13c-0.36-0.09-0.7-0.24-0.99-0.44
			c-0.3-0.2-0.55-0.47-0.74-0.81c-0.2-0.33-0.3-0.75-0.3-1.24c0-0.65,0.17-1.16,0.52-1.53c0.35-0.38,0.8-0.66,1.36-0.86
			c0.56-0.2,1.19-0.33,1.9-0.39c0.71-0.06,1.42-0.09,2.13-0.09V28.73z M78.54,30.18c-0.42,0-0.85,0.02-1.3,0.05
			c-0.45,0.04-0.85,0.11-1.22,0.21c-0.36,0.11-0.67,0.27-0.91,0.48c-0.24,0.21-0.36,0.5-0.36,0.86c0,0.25,0.05,0.46,0.15,0.63
			c0.1,0.17,0.24,0.3,0.4,0.41c0.17,0.11,0.35,0.18,0.56,0.22c0.2,0.04,0.41,0.06,0.63,0.06c0.79,0,1.4-0.24,1.82-0.71
			c0.42-0.47,0.64-1.07,0.64-1.78v-0.45H78.54z"/>
		<path class="st0" d="M83.36,26.69c-0.01-0.36-0.03-0.67-0.05-0.95h1.6c0.02,0.22,0.04,0.46,0.05,0.74
			c0.01,0.28,0.02,0.51,0.02,0.69h0.05c0.24-0.5,0.59-0.9,1.05-1.21c0.46-0.3,0.98-0.46,1.55-0.46c0.26,0,0.48,0.02,0.66,0.07
			l-0.07,1.56c-0.24-0.06-0.5-0.09-0.77-0.09c-0.41,0-0.76,0.07-1.06,0.22c-0.3,0.15-0.55,0.35-0.74,0.6
			c-0.2,0.25-0.34,0.54-0.44,0.87c-0.1,0.33-0.14,0.67-0.14,1.03v4.46h-1.68v-6.67C83.38,27.34,83.37,27.05,83.36,26.69z"/>
		<path class="st0" d="M97.49,29.91c0,0.1,0,0.19,0,0.29c0,0.1-0.01,0.19-0.02,0.29h-6.76c0.01,0.36,0.09,0.69,0.24,1.01
			c0.15,0.31,0.35,0.59,0.6,0.82c0.25,0.23,0.54,0.41,0.87,0.54c0.33,0.13,0.68,0.2,1.05,0.2c0.57,0,1.07-0.13,1.49-0.38
			c0.42-0.25,0.75-0.56,0.99-0.91l1.18,0.95c-0.45,0.6-0.99,1.05-1.6,1.33c-0.62,0.28-1.3,0.43-2.05,0.43
			c-0.65,0-1.24-0.11-1.79-0.32c-0.55-0.21-1.02-0.52-1.42-0.9s-0.71-0.86-0.93-1.41c-0.23-0.55-0.34-1.16-0.34-1.83
			c0-0.66,0.11-1.26,0.33-1.82c0.22-0.56,0.53-1.03,0.93-1.43c0.4-0.39,0.86-0.7,1.4-0.92c0.54-0.22,1.12-0.33,1.74-0.33
			c0.62,0,1.19,0.1,1.7,0.3c0.51,0.2,0.94,0.5,1.29,0.88c0.35,0.38,0.63,0.85,0.82,1.39C97.39,28.62,97.49,29.23,97.49,29.91z
			 M95.77,29.23c-0.01-0.33-0.07-0.65-0.17-0.94c-0.1-0.29-0.25-0.55-0.45-0.76c-0.2-0.22-0.44-0.39-0.73-0.51
			c-0.29-0.13-0.64-0.19-1.03-0.19c-0.36,0-0.7,0.06-1.01,0.19c-0.32,0.13-0.59,0.3-0.82,0.51c-0.23,0.21-0.42,0.47-0.57,0.76
			c-0.15,0.29-0.24,0.61-0.26,0.94H95.77z"/>
		<path class="st0" d="M107.76,29.91c0,0.1,0,0.19,0,0.29c0,0.1-0.01,0.19-0.02,0.29h-6.76c0.01,0.36,0.09,0.69,0.24,1.01
			c0.15,0.31,0.35,0.59,0.6,0.82c0.25,0.23,0.54,0.41,0.87,0.54c0.33,0.13,0.68,0.2,1.05,0.2c0.57,0,1.07-0.13,1.49-0.38
			c0.42-0.25,0.75-0.56,0.99-0.91l1.18,0.95c-0.45,0.6-0.99,1.05-1.6,1.33c-0.62,0.28-1.3,0.43-2.05,0.43
			c-0.65,0-1.24-0.11-1.79-0.32c-0.55-0.21-1.02-0.52-1.42-0.9s-0.71-0.86-0.93-1.41c-0.23-0.55-0.34-1.16-0.34-1.83
			c0-0.66,0.11-1.26,0.33-1.82c0.22-0.56,0.53-1.03,0.93-1.43c0.4-0.39,0.86-0.7,1.4-0.92c0.54-0.22,1.12-0.33,1.74-0.33
			c0.62,0,1.19,0.1,1.7,0.3c0.51,0.2,0.94,0.5,1.29,0.88c0.35,0.38,0.63,0.85,0.82,1.39C107.66,28.62,107.76,29.23,107.76,29.91z
			 M106.04,29.23c-0.01-0.33-0.07-0.65-0.17-0.94c-0.1-0.29-0.25-0.55-0.45-0.76c-0.2-0.22-0.44-0.39-0.73-0.51
			c-0.29-0.13-0.64-0.19-1.03-0.19c-0.36,0-0.7,0.06-1.01,0.19c-0.32,0.13-0.59,0.3-0.82,0.51c-0.23,0.21-0.42,0.47-0.57,0.76
			c-0.15,0.29-0.24,0.61-0.26,0.94H106.04z"/>
		<path class="st0" d="M110.07,26.69c-0.01-0.36-0.03-0.67-0.05-0.95h1.6c0.02,0.22,0.04,0.46,0.05,0.74
			c0.01,0.28,0.02,0.51,0.02,0.69h0.05c0.24-0.5,0.59-0.9,1.05-1.21c0.46-0.3,0.98-0.46,1.55-0.46c0.26,0,0.48,0.02,0.66,0.07
			l-0.07,1.56c-0.24-0.06-0.5-0.09-0.77-0.09c-0.41,0-0.76,0.07-1.06,0.22c-0.3,0.15-0.55,0.35-0.74,0.6
			c-0.2,0.25-0.34,0.54-0.44,0.87c-0.1,0.33-0.14,0.67-0.14,1.03v4.46h-1.68v-6.67C110.09,27.34,110.08,27.05,110.07,26.69z"/>
	</g>
	<g>
		<g>
			<defs>
				<path id="SVGID_1_" d="M41.12,7.87c-3.35,0-6.41,1.22-8.78,3.23V7.6H9.21V17h6.36v17.88h10.42V17h2.32
					c-0.48,1.39-0.75,2.89-0.75,4.44c0,7.49,6.07,13.56,13.56,13.56c7.49,0,13.56-6.07,13.56-13.56
					C54.68,13.95,48.61,7.87,41.12,7.87z"/>
			</defs>
			<clipPath id="SVGID_2_">
				<use xlink:href="#SVGID_1_"  style="overflow:visible;"/>
			</clipPath>
			<path class="st1" d="M37.71,35.36C37.71,35.36,37.71,35.36,37.71,35.36C37.71,35.36,37.71,35.36,37.71,35.36z"/>
			<path class="st1" d="M36.53,34.71c0,0,0,0.01,0,0.01C36.54,34.72,36.53,34.71,36.53,34.71z"/>
			<path class="st1" d="M23.52,35.54C23.52,35.54,23.52,35.54,23.52,35.54C23.52,35.54,23.52,35.54,23.52,35.54z"/>
			<path class="st1" d="M19.51,20.76L19.51,20.76L19.51,20.76z"/>
			<g class="st2">
				<path class="st0" d="M36.84,36.79c-0.04,0-0.08-0.01-0.12-0.01c-0.34-0.05-0.63-0.27-0.8-0.59c-0.03-0.02-0.09-0.06-0.2-0.1
					c-0.25-0.09-0.85-0.33-0.99-0.95c-0.02-0.09-0.1-0.37-0.22-0.85c-0.27-1.07-0.56-2.27-0.84-3.59c-0.29-1.33-0.6-2.73-0.93-4.2
					c-0.33-1.47-0.68-2.96-1.03-4.46c-0.36-1.5-0.34-1.52-0.67-2.82c-0.43-1.69-0.77-1.35-0.67-2.14c0.06-0.46,0.6-0.99,1-1.24
					c0.29-0.17,0.59-0.33,0.92-0.44c1.29-0.46,3.33,0.5,4.01,1.74c0.41,0.76,0.55,0.82,0.84,1.95c0.27,1.09,0.49,2.29,0.66,3.58
					c0.06,0.48,0.11,0.95,0.16,1.42c0.27-0.32,0.54-0.66,0.82-0.99c0.79-0.98,1.62-1.93,2.47-2.83c0.86-0.91,1.76-1.75,2.68-2.48
					c0.94-0.76,1.93-1.42,2.98-1.86c1.21-0.5,1.93-0.29,2.57-0.23c0.46,0.04,0.92,0.17,1.3,0.49c0.73,0.53,1.32,1.28,1.76,2.21
					c0.4,0.85,0.74,1.8,1.01,2.82c0.2,0.61,0.31,1.21,0.34,1.77c0.02,0.4,0.34,1.81,0.53,2.36c0,0,0.36,0.98,0.68,1.92
					c0.37,1.08,0.51,2.14,0.41,3.16l-0.01,0.07c-0.06,0.34-0.15,0.63-0.28,0.88c-0.09,0.17-0.2,0.38-0.33,0.62
					c-0.12,0.25-0.3,0.54-0.55,0.88c-0.27,0.36-0.54,0.63-0.83,0.84c-0.16,0.14-0.2,0.21-0.2,0.21c-0.17,0.31-0.49,0.56-1.07,0.8
					l-0.72,0.3l-0.41-0.67c-0.62-1-1.1-2.1-1.43-3.26c-0.32-1.1-0.59-2.27-0.82-3.48c-0.22-1.18-0.43-2.41-0.61-3.66
					c-0.17-1.16-0.38-2.36-0.63-3.57c-0.02,0-0.04-0.01-0.06-0.01c-0.26-0.03-0.6,0.09-1.02,0.35c-0.51,0.32-1.08,0.84-1.67,1.55
					c-0.6,0.72-1.16,1.66-1.65,2.8c-0.33,0.84-0.66,1.75-0.96,2.69c-0.31,0.97-0.66,1.96-1.05,2.93c-0.39,0.99-0.85,1.98-1.38,2.92
					c-0.54,0.97-1.2,1.87-1.96,2.66C37.55,36.64,37.2,36.81,36.84,36.79z"/>
				<path class="st0" d="M26.08,40.2l-0.79-0.94c-0.78-0.93-1.38-2.06-1.8-3.36c-0.39-1.22-0.71-2.51-0.98-3.84
					c-0.26-1.3-0.52-2.62-0.78-3.95c-0.25-1.27-0.6-2.52-1.03-3.7c-0.34-0.97-0.33-1.7,0.02-2.23c0.26-0.4,0.59-0.7,0.97-0.91
					l0.04-0.02c0.38-0.18,1-0.32,1.83,0.06c0.42,0.19,0.82,0.39,1.21,0.58c0.88,0.44,1.98,1.97,1.98,1.97
					c0.43,1.09,0.92,1.35,1.22,2.27c0.3,0.93,0.55,1.84,0.74,2.7c0.19,0.84,0.37,1.72,0.52,2.62c0.15,0.88,0.31,1.85,0.46,2.87
					c0.06,0.42-0.05,0.86-0.35,1.3c-0.1,0.15-0.16,0.29-0.19,0.43c-0.16,0.68-0.31,1.04-0.51,1.28c-0.14,0.16-0.34,0.35-0.65,0.58
					l-0.05,0.03c-0.47,0.31-0.87,0.73-1.21,1.23L26.08,40.2z"/>
				<path class="st0" d="M23.19,18.28c-0.11-0.04-0.22-0.1-0.32-0.18c-0.35-0.21-0.77-0.4-1.23-0.58c-0.56-0.22-1.15-0.47-1.76-0.77
					c-0.63-0.3-1.26-0.67-1.87-1.1c-0.65-0.44-1.24-1-1.77-1.64l-0.15-0.18l-0.04-0.23c-0.11-0.59-0.19-2.17,1.29-2.88
					c1.4-0.67,2.85,0.02,3.18,0.15l0.08,0.03l0.07,0.04c0.43,0.26,0.88,0.65,1.37,1.2c0.39,0.43,0.72,0.75,1,0.96
					c0.57,0.46,0.99,0.86,1.31,1.25c0.41,0.51,0.59,1.2,0.52,2.07c0.1,0.69-0.03,1.22-0.4,1.57C24.1,18.35,23.61,18.45,23.19,18.28z
					"/>
			</g>
		</g>
		<g>
			<g>
				<polygon class="st0" points="8.54,7.64 32.4,7.64 31.07,6.68 7.28,6.68 7.28,16.07 8.54,17.01 				"/>
				<polygon class="st0" points="15.56,17.03 14.3,17.03 14.3,33.95 15.56,34.83 				"/>
			</g>
			<path class="st0" d="M27.55,21.44c0-1.56,0.27-3.05,0.75-4.44h-0.93c-0.29,1.1-0.45,2.25-0.45,3.44c0,2.71,0.81,5.24,2.21,7.36
				C28.13,25.9,27.55,23.73,27.55,21.44z"/>
			<path class="st0" d="M32.34,10.88c2.02-1.62,4.51-2.67,7.24-2.92c0.51-0.06,1.02-0.09,1.54-0.09c4.93,0,9.25,2.63,11.62,6.57
				C50.48,9.97,45.8,6.9,40.39,6.9c-3.01,0-5.79,0.95-8.05,2.56V10.88z"/>
		</g>
	</g>
</g>
</svg>
