<?xml version="1.0" encoding="UTF-8"?>
<svg width="20px" height="20px" viewBox="0 0 20 20" version="1.1" xmlns="http://www.w3.org/2000/svg" xmlns:xlink="http://www.w3.org/1999/xlink">
    <title>phone-call</title>
    <g id="页面-1" stroke="none" stroke-width="1" fill="none" fill-rule="evenodd" stroke-linecap="round" stroke-linejoin="round">
        <g id="关于我们" transform="translate(-781.000000, -1080.000000)" stroke="#434D57" stroke-width="1.25">
            <g id="编组-5" transform="translate(782.000000, 898.000000)">
                <g id="phone-call" transform="translate(0.000000, 183.000000)">
                    <path d="M10.875,3.33333333 C12.5399912,3.65818054 13.8418195,4.96000877 14.1666667,6.625 M10.875,0 C14.3579569,0.386928534 17.1086879,3.13419952 17.5,6.61666667 M16.6666667,13.2666667 L16.6666667,15.7666667 C16.6685715,16.2359543 16.47254,16.6842986 16.1267316,17.0015541 C15.7809231,17.3188095 15.3173866,17.4755734 14.85,17.4333333 C12.2856949,17.1547006 9.8224993,16.2784538 7.65833333,14.875 C5.64485677,13.5955532 3.93778012,11.8884766 2.65833333,9.875 C1.24998171,7.70100332 0.373535835,5.2258288 0.1,2.65 C0.0578943419,2.18406028 0.213560007,1.72187702 0.528971483,1.37635088 C0.844382959,1.03082474 1.2904952,0.833773909 1.75833333,0.833251401 L4.25833333,0.833251401 C5.09488671,0.825099869 5.80791737,1.43830624 5.925,2.26666667 C6.03051918,3.06672204 6.22620788,3.8522724 6.50833333,4.60833333 C6.73727917,5.21739586 6.59084589,5.90400522 6.13333333,6.36666667 L5.075,7.425 C6.26129623,9.51128819 7.98871181,11.2387038 10.075,12.425 L11.1333333,11.3666667 C11.5959948,10.9091541 12.2826041,10.7627208 12.8916667,10.9916667 C13.6477276,11.2737921 14.433278,11.4694808 15.2333333,11.575 C16.0713022,11.6932169 16.6876583,12.4206605 16.6666667,13.2666667 L16.6666667,13.2666667 Z" id="形状"></path>
                </g>
            </g>
        </g>
    </g>
</svg>